<?xml version="1.0" encoding="utf-8"?>
<!-- Generator: Adobe Illustrator 25.4.1, SVG Export Plug-In . SVG Version: 6.00 Build 0)  -->
<svg version="1.1" id="Layer_1" xmlns="http://www.w3.org/2000/svg" xmlns:xlink="http://www.w3.org/1999/xlink" x="0px" y="0px"
	 viewBox="0 0 601.8 601.8" style="enable-background:new 0 0 601.8 601.8;" xml:space="preserve">
<style type="text/css">
	.st0{fill:#F5EECE;stroke:#383130;stroke-width:3;stroke-miterlimit:10;}
	.st1{fill:none;stroke:#350A01;stroke-miterlimit:10;}
	.st2{fill:#E68781;stroke:#383130;stroke-miterlimit:10;}
	.st3{fill:#19434C;stroke:#383130;stroke-miterlimit:10;}
	.st4{fill:#F5EECE;stroke:#383130;stroke-miterlimit:10;}
	.st5{fill:#EC8A61;stroke:#383130;stroke-miterlimit:10;}
	.st6{fill:#758E94;stroke:#383130;stroke-width:1.5;stroke-miterlimit:10;}
	.st7{fill:#19434C;stroke:#383130;stroke-width:1.5;stroke-miterlimit:10;}
	.st8{fill:#476970;stroke:#383130;stroke-width:1.5;stroke-miterlimit:10;}
	.st9{fill:#E06962;stroke:#383130;stroke-width:1.5;stroke-miterlimit:10;}
	.st10{fill:#E68781;stroke:#383130;stroke-width:1.5;stroke-miterlimit:10;}
	.st11{fill:none;stroke:#383130;stroke-width:1.5;stroke-miterlimit:10;}
	.st12{fill:#F5EECE;}
	.st13{fill:#F9F5E2;}
	.st14{stroke:#383130;stroke-width:1.5;stroke-miterlimit:10;}
	.st15{fill:#FFF9ED;stroke:#383130;stroke-width:1.5;stroke-miterlimit:10;}
	.st16{fill:#F9F5E2;stroke:#383130;stroke-width:2;stroke-miterlimit:10;}
	.st17{fill:#476970;stroke:#383130;stroke-miterlimit:10;}
</style>
<circle class="st0" cx="300.9" cy="300.6" r="299.4"/>
<g>
	<path class="st1" d="M58,240h-0.3v-2.2C57.7,238.6,57.8,239.3,58,240z"/>
	<rect x="57.6" y="235.3" class="st2" width="33.4" height="4.8"/>
	<path class="st3" d="M91.1,225.7v4.8H57.8c0.2-1.6,0.6-3.2,1.1-4.8H91.1z"/>
	<path class="st4" d="M91.1,244.8v4.8H61.9c-1-1.5-1.8-3.1-2.5-4.8H91.1z"/>
	<path class="st1" d="M58.2,259.1h-0.6v-0.6L58.2,259.1z"/>
	<path class="st5" d="M91.1,254.4v4.8H70.7c-1.8-1.5-3.6-3.1-5.2-4.8L91.1,254.4L91.1,254.4z"/>
	<path class="st4" d="M91.1,390.8v4.8H57.6v-1c0.2-1.3,0.6-2.6,1-3.8H91.1z"/>
	<path class="st5" d="M91.1,381.3v4.8H60.5c0.8-1.7,1.8-3.3,2.8-4.8H91.1z"/>
	<rect x="57.7" y="400.4" class="st2" width="33.4" height="4.8"/>
	<path class="st3" d="M91.1,409.9v4.8H58.8c-0.4-1.5-0.8-3.1-1.1-4.8H91.1z"/>
	<path class="st4" d="M107.3,315.2H86.4v-4.8h20c0.4,1.4,0.7,2.9,0.9,4.4V315.2z"/>
	<path class="st5" d="M104.9,305.7H86.4v-4.8H103C103.7,302.5,104.3,304.1,104.9,305.7z"/>
	<path class="st2" d="M107.7,324.8H86.4V320h21.4C107.9,321.6,107.9,323.2,107.7,324.8z"/>
	<path class="st3" d="M107,329.6c-0.3,1.6-0.7,3.2-1.2,4.8H86.4v-4.8H107z"/>
	<path class="st6" d="M124.5,319.6c0,30.2-32.6,42.2-56.5,66.1c-3.1,3-5.6,6.5-7.5,10.4c-0.8,1.5-1.4,3.2-1.9,4.8
		c-0.4,1.3-0.7,2.5-1,3.8c-0.9,5.1-0.9,10.3,0.1,15.3c0.3,1.6,0.7,3.2,1.1,4.8c1.7,5.9,4.3,11.5,7.6,16.6c-8-3.2-24.5-27.3-13.5-47
		c12.2-22,42-39.6,51.8-60.1c0.8-1.5,1.4-3.2,1.9-4.8c0.5-1.6,0.8-3.2,1-4.8c0.2-1.6,0.3-3.2,0.2-4.8c-0.1-1.6-0.3-3.2-0.7-4.8
		c0-0.1-0.1-0.3-0.1-0.4c-0.4-1.5-0.8-3-1.4-4.4c-0.6-1.6-1.4-3.2-2.2-4.8c-0.9-1.7-1.8-3.3-2.9-4.8c-11.2-16.9-32.3-31.3-42.3-41.8
		l-0.6-0.6c-2.5-2.7-4.2-5.2-4.8-7.3c-7.4-29.6,16.1-43.4,16.7-43.8c-4.8,5.3-8.5,11.5-10.7,18.3c-0.5,1.6-0.8,3.2-1.1,4.8
		c-0.4,2.4-0.4,4.9-0.2,7.4v2.2h0.3c0.3,1.6,0.8,3.2,1.4,4.8c0.7,1.7,1.5,3.3,2.5,4.8c1.1,1.7,2.3,3.3,3.7,4.8
		c1.6,1.7,3.4,3.3,5.2,4.8c1.3,1.1,2.8,2.1,4.4,3.2C116.6,289.4,124.5,298.9,124.5,319.6z"/>
</g>
<g>
	<path class="st6" d="M261.4,95.7c0,0,40.1,29,40,29s-100.1,31.1-100,31l0,0L261.4,95.7z"/>
	<path class="st7" d="M185.4,204.4L300.7,125c0.1-0.1,0.3,0,0.3,0.2v79.4c0,0.1-0.1,0.2-0.2,0.2H185.6c-0.1,0-0.2-0.1-0.3-0.2l0,0
		l0,0C185.3,204.4,185.4,204.4,185.4,204.4z"/>
	<path class="st7" d="M418.1,204.8l-116.6-79.8c-0.2-0.1-0.4,0-0.4,0.2v79.6H418.1z"/>
	<path class="st7" d="M380.6,318.4l-4.3,13l-6.4-10.8C373.6,320.2,377.1,319.5,380.6,318.4z"/>
	<path class="st7" d="M418.1,204.8l-11.7,35.3c-8.6-14.1-23.3-23.4-40.1-23.4c-18.2,0-34,11-42.2,27.1l-23.2-39L418.1,204.8
		L418.1,204.8z"/>
	<polygon class="st7" points="226.8,331.4 301.1,204.8 184.8,204.8 	"/>
	<path class="st7" d="M376.3,331.4H226.8l74.3-126.6l23.2,39c-3.8,7.7-5.8,16.3-5.8,24.9c0,28.7,21.5,52,48,52c1.2,0,2.3,0,3.5-0.1
		L376.3,331.4z"/>
	<polygon class="st7" points="296.4,440.4 226.8,331.4 376.3,331.4 	"/>
	<path class="st8" d="M392.9,380.4c-4.6,1.1-9,2-13.3,2.6l0,0c-0.3,0-0.5,0.1-0.8,0.1h-0.3c-8.3,1.3-16.6,1.8-25,1.5l0,0
		c-5-0.2-10-0.7-15-1.5l37.8-51.7l6.5,19.1l9.8,29l0,0L392.9,380.4z"/>
	<path class="st8" d="M409.5,434.4l-113.1,6l42-57.4c5,0.8,10,1.3,15,1.5l0,0c8.4,0.3,16.7-0.2,25-1.5h0.3c0.2,0,0.5-0.1,0.8-0.1
		l0,0c4.3-0.6,8.7-1.5,13.3-2.6l17.8,52.4c0.3,0.6,0,1.3-0.7,1.6C409.8,434.4,409.7,434.4,409.5,434.4z"/>
	<path class="st9" d="M303.5,471.6c-0.1-0.3-0.1-0.6-0.2-0.8l0,0l-6.7-30.2c0-0.1,0.1-0.3,0.2-0.3l112.7-6
		C409.8,434.4,384.8,454.1,303.5,471.6z"/>
	<path class="st9" d="M190.4,436.6l106,3.7l6.9,31c0,0.1-0.1,0.2-0.2,0.2L190.4,436.6z"/>
	<polygon class="st10" points="124.4,316.9 191.4,434.2 226.7,331.6 226.8,331.4 	"/>
	<polygon class="st10" points="296.4,440.4 190.4,436.6 226.8,331.4 	"/>
	<polygon class="st7" points="183.7,205.1 226.8,331.4 124.4,316.9 	"/>
	<path class="st8" d="M201.9,155.9l99.1-31.2c0,0,0.1,0,0,0.1l-117.2,80.3l0,0L201.9,155.9z"/>
	<polygon class="st8" points="137.4,231.6 124.4,316.9 183.7,205.1 	"/>
	<path class="st8" d="M201.1,157.9l-17.4,47.2c0,0.1-0.1,0.1-0.2,0.2l-44.6,25.6c-0.2,0.1-0.4,0-0.5-0.1s-0.1-0.2,0-0.4l62-72.8
		C200.8,157.1,201.3,157.4,201.1,157.9z"/>
	<path class="st8" d="M405.3,151.1l12.7,53.3c0,0.1-0.1,0.2-0.2,0.2l-116-79.4c-0.1-0.1-0.1-0.2,0-0.3h0.1l64.6,16.3L405.3,151.1
		L405.3,151.1z"/>
	<path class="st8" d="M468.6,231.6l-50.4-26.9l0,0l-12.8-53.5c0,0,0-0.1,0.1-0.1l0,0l0,0l63.2,80.3
		C468.7,231.6,468.7,231.6,468.6,231.6z"/>
	<polygon class="st8" points="477.4,318 468.9,231.9 418.1,204.8 477.4,317.6 	"/>
	<path class="st7" d="M473.5,318.5l-24.6,3.2c-0.7-3.3-1.2-6.7-1.5-10.1c0,0-1.3,4.3-3.3,10.7l-67.8,9l4.3-13
		c19.6-6.5,33.8-26.3,33.8-49.7c0.1-10.1-2.7-20-7.9-28.6l11.7-35.3l57.5,109.8l0,0v0.1l0,0C476.4,317.6,475.4,318.2,473.5,318.5z"
		/>
	<path class="st7" d="M419.4,327.6c0,0-13.1,30.4-26.8,51.8l-9.8-29l0,0l-6.5-19.1l42.9-5.7L419.4,327.6z"/>
	<path class="st7" d="M444.1,322.4c-4.4,13.9-12.2,37.5-17.3,46.8l0,0c-1.2,0.5-2.4,1-3.6,1.4c-0.6-0.4-3-4.4-3.9-43l-0.3-2
		L444.1,322.4z"/>
	<path class="st10" d="M475.9,346.5c-5.7,13.9-28.3,61.3-65.1,87.2c-0.1,0.1-17.9-53.4-17.9-53.4l-0.3-0.9l0,0
		c13.7-21.3,26.8-51.7,26.8-51.7c0.9,38.6,3.3,42.6,3.9,43c1.2-0.5,2.4-1,3.6-1.4h0.1l29.6-14.6l-0.2,0.4
		c5.7-3.1,11.5-6.5,17.5-10.2c0.6-0.4,1.5-0.2,1.9,0.4C476,345.6,476.1,346,475.9,346.5z"/>
	<path class="st7" d="M477.4,318L459,350.1c-4.7-9-8.1-18.6-10.2-28.5l24.6-3.2L477.4,318z"/>
	<path class="st11" d="M456.3,355c-9.6,5.2-19.4,10-29.4,14.2"/>
	<path class="st11" d="M392.9,380.4c10.1-2.4,20-5.6,29.6-9.4c0.3-0.1,0.5-0.2,0.8-0.3"/>
	<path class="st11" d="M287.4,354.6c0,0,15,22.1,51,28.4"/>
	<ellipse class="st11" cx="351.6" cy="258.8" rx="17.8" ry="18.8"/>
	<ellipse class="st11" cx="351.6" cy="258.8" rx="17.8" ry="18.8"/>
	<path class="st12" d="M403.6,252.1c-6.6-17.6-21-29.9-37.7-29.9c-17.1,0-31.7,12.8-38.1,31c-2.3,6.6-3.4,13.5-3.4,20.4
		c0,28.4,18.6,51.4,41.5,51.4h0.5c5.9-0.1,11.7-1.7,16.8-4.6c14.3-8.1,24.2-26,24.2-46.8C407.4,266.4,406.1,259,403.6,252.1z"/>
	<path class="st13" d="M407.4,274.2c0,20.8-10.9,38.1-25.2,46.2c-5.1,3-10.9,4.6-16.8,4.6h-0.5c-6.6,0-13-1.9-18.6-5.4l0.1-0.1
		c0,0,75,5.5,46.5-83.8c4.2,4.8,7.5,10.4,9.7,16.4C405,258.8,407.4,266.5,407.4,274.2z"/>
	<ellipse class="st14" cx="380.6" cy="246.6" rx="17.8" ry="18.8"/>
	<ellipse class="st15" cx="386.9" cy="236.6" rx="6.5" ry="6.6"/>
	<path class="st11" d="M215.3,447.2"/>
	<path class="st16" d="M460.4,352.6l-3.8,1.9L427,369.1h-0.1c5.1-9.3,12.9-32.9,17.3-46.8c2-6.4,4.3-14.7,4.3-14.7l0,0
		C458.4,312.6,459.8,347,460.4,352.6z"/>
	<path class="st11" d="M426.9,369.1"/>
	<line class="st11" x1="460.4" y1="352.6" x2="456.6" y2="354.5"/>
	<path class="st16" d="M423.4,370.6l-0.9,0.3l-29.9,8.7h-0.2c0-0.1,0.1-0.2,0.2-0.2l0,0c13.7-21.4,26.8-51.8,26.8-51.8
		c7,24,3.3,42.6,3.9,43H423.4z"/>
	<polygon class="st17" points="286.4,227.6 247.4,227.6 247.4,222.6 290.4,222.6 	"/>
	<polygon class="st2" points="278.4,237.6 247.4,237.6 247.4,232.6 282.4,232.6 	"/>
	<polygon class="st4" points="270.4,246.6 247.4,246.6 247.4,241.6 274.4,241.6 	"/>
	<polygon class="st5" points="262.4,256.6 247.4,256.6 247.4,251.6 266.4,251.6 	"/>
	<polygon class="st5" points="256.4,383.6 294.4,383.6 294.4,378.6 252.4,378.6 	"/>
	<polygon class="st4" points="263.4,392.6 294.4,392.6 294.4,387.6 259.4,387.6 	"/>
	<polygon class="st2" points="271.4,402.6 294.4,402.6 294.4,397.6 267.4,397.6 	"/>
	<polygon class="st17" points="279.4,411.6 294.4,411.6 294.4,406.6 275.4,406.6 	"/>
	<polygon class="st6" points="301.1,204.8 221.3,314.6 212.8,329.4 220.9,344.5 296.4,440.4 226.8,331.4 	"/>
	<polygon class="st3" points="287.3,128.6 255.7,105.7 258.6,101.7 293.5,126.8 	"/>
	<polygon class="st2" points="272,132.8 246.9,114.7 249.9,110.6 278.2,131.1 	"/>
	<polygon class="st4" points="256.8,138.1 238.1,124.6 241.1,120.4 262.9,136.4 	"/>
	<polygon class="st5" points="241.5,143.2 229.3,134.4 232.3,130.4 247.7,141.6 	"/>
	<path class="st6" d="M172,152.8l29.5,1.8l-39.1,47.1l0,0C162.7,200.1,172,152.8,172,152.8z"/>
	<polygon class="st3" points="195.6,161.1 172.3,159.6 172.5,156.6 198.2,158.2 	"/>
	<polygon class="st2" points="189.2,168.1 170.7,166.9 170.9,163.9 191.8,165.2 	"/>
	<polygon class="st4" points="183.2,175.6 169.5,174.8 169.7,171.8 185.8,172.8 	"/>
	<polygon class="st5" points="177.2,183.1 168.2,182.6 168.4,179.6 179.7,180.2 	"/>
	<path class="st7" d="M124.4,316.9"/>
	<path class="st9" d="M257.9,505.6c0,0,45.7-33.2,45.5-33.3c0,0-113.1-36.8-113-36.7l0,0C190.4,435.6,257.8,505.6,257.9,505.6z"/>
	<polygon class="st3" points="287.4,467.6 251.5,494 254.8,498.6 294.4,469.8 	"/>
	<polygon class="st2" points="270.2,462.6 241.6,483.5 244.9,488.2 277.2,464.8 	"/>
	<polygon class="st4" points="252.9,456.5 231.8,472 235,476.8 259.9,458.5 	"/>
	<polygon class="st5" points="235.7,450.4 221.9,460.5 225.2,465.1 242.7,452.4 	"/>
	<path class="st9" d="M163.5,433.6c0,0,29.4,3.2,29.3,3.2l-30.5-53l0,0C162.4,385.5,163.5,433.6,163.5,433.6z"/>
	<polygon class="st3" points="188.2,429.5 165,427 164.7,430 190.2,432.6 	"/>
	<polygon class="st2" points="183.1,421.5 164.7,419.5 164.4,422.5 185.2,424.8 	"/>
	<polygon class="st4" points="178.4,413 164.8,411.5 164.4,414.5 180.5,416.2 	"/>
	<polygon class="st5" points="173.7,404.6 164.8,403.6 164.5,406.6 175.8,407.9 	"/>
	<path class="st6" d="M406.5,241.4c-8.6-15.6-23.3-25.8-40.1-25.8c-18.2,0-34,12.1-42.2,30c-3.9,8.7-5.8,18-5.8,27.5
		c0,31.8,21.5,57.5,48,57.5c1.2,0,2.3,0,3.5-0.1c3.7-0.3,7.3-1.1,10.7-2.4c19.6-7.2,33.8-29.1,33.8-55
		C414.5,262.1,411.8,251.2,406.5,241.4z M383.2,319.4c-5.1,3-10.9,4.6-16.8,4.6h-0.5c-22.9,0-41.5-23-41.5-51.4
		c0-6.9,1.1-13.8,3.4-20.4c6.4-18.2,21-31,38.1-31c16.7,0,31.1,12.2,37.7,29.9c2.5,6.9,3.8,14.2,3.8,21.5
		C407.4,293.4,397.5,311.2,383.2,319.4L383.2,319.4z"/>
</g>
</svg>
