<?xml version="1.0" encoding="utf-8"?>
<!-- Generator: Adobe Illustrator 25.4.1, SVG Export Plug-In . SVG Version: 6.00 Build 0)  -->
<svg version="1.1" id="Layer_1" xmlns="http://www.w3.org/2000/svg" xmlns:xlink="http://www.w3.org/1999/xlink" x="0px" y="0px"
	 viewBox="0 0 541 538" style="enable-background:new 0 0 541 538;" xml:space="preserve">
<style type="text/css">
	.st0{fill:#FDCAAB;stroke:#383130;stroke-width:3;stroke-miterlimit:10;}
	.st1{fill:#386BAA;stroke:#383130;stroke-width:1.5;stroke-miterlimit:10;}
	.st2{fill:#87B0CB;stroke:#383130;stroke-width:1.5;stroke-miterlimit:10;}
	.st3{fill:#F6CF99;stroke:#383130;stroke-width:1.5;stroke-miterlimit:10;}
	.st4{fill:#A83709;stroke:#383130;stroke-width:1.5;stroke-miterlimit:10;}
	.st5{fill:#E09393;stroke:#383130;stroke-width:1.5;stroke-miterlimit:10;}
	.st6{fill:none;stroke:#383130;stroke-width:1.5;stroke-miterlimit:10;}
	.st7{fill:#EFA88A;}
	.st8{fill:#FADBCD;}
	.st9{stroke:#383130;stroke-width:1.5;stroke-miterlimit:10;}
	.st10{fill:#FFF9ED;stroke:#383130;stroke-width:1.5;stroke-miterlimit:10;}
	.st11{fill:#1A5B68;stroke:#383130;stroke-width:1.5;stroke-miterlimit:10;}
	.st12{fill:#EC926D;stroke:#383130;stroke-width:1.5;stroke-miterlimit:10;}
	.st13{fill:#1A5B68;stroke:#383130;stroke-miterlimit:10;}
	.st14{fill:#E09393;stroke:#383130;stroke-miterlimit:10;}
	.st15{fill:#F6CF99;stroke:#383130;stroke-miterlimit:10;}
	.st16{fill:#EC926D;stroke:#383130;stroke-miterlimit:10;}
	.st17{fill:none;stroke:#350B01;stroke-miterlimit:10;}
</style>
<circle class="st0" cx="271" cy="268" r="257.5"/>
<path class="st1" d="M263,62c0,0,40.1,29,40,29c0,0-100.1,31.1-100,31l0,0l0,0C203,122,263,62,263,62z"/>
<path class="st2" d="M187,170.7l115.3-79.4c0.1-0.1,0.3,0,0.3,0.2v79.4c0,0.1-0.1,0.2-0.2,0.2H187.2
	C186.9,171.1,186.9,170.8,187,170.7z"/>
<path class="st2" d="M419.7,171.1L303.1,91.3c-0.2-0.1-0.4,0-0.4,0.2v79.6H419.7z"/>
<path class="st2" d="M382.2,284.7l-4.3,13l-6.4-10.8C375.2,286.6,378.7,285.8,382.2,284.7z"/>
<path class="st2" d="M419.7,171.1l-11.7,35.3c-8.6-14.1-23.3-23.4-40.1-23.4c-18.2,0-34,11-42.2,27.1l-23.2-39H419.7z"/>
<polygon class="st2" points="228.4,297.7 302.7,171.1 186.4,171.1 "/>
<path class="st2" d="M377.9,297.7H228.4l74.3-126.6l23.2,39c-3.7,7.4-5.8,15.9-5.8,24.9c0,28.7,21.5,52,48,52c1.2,0,2.3,0,3.5-0.1
	L377.9,297.7z"/>
<polygon class="st2" points="298,406.7 228.4,297.7 377.9,297.7 "/>
<path class="st3" d="M394.5,346.7c-4.6,1.1-9,2-13.3,2.6c0,0,0,0,0,0c-0.3,0-0.5,0.1-0.8,0.1c-0.1,0-0.2,0-0.3,0
	c-9.1,1.3-17.4,1.8-25,1.5h0c0,0,0,0,0,0c-5.3-0.2-10.3-0.7-15-1.5l37.8-51.7l6.5,19.1l9.8,29c0,0,0,0,0,0L394.5,346.7z"/>
<path class="st3" d="M411.1,400.7l-113.1,6l42-57.4c4.6,0.8,9.6,1.3,15,1.5c0,0,0,0,0,0h0c7.6,0.3,15.9-0.1,25-1.5
	c0.2,0,0.3,0,0.3,0c0.2,0,0.5-0.1,0.8-0.1c0,0,0,0,0,0c4.3-0.6,8.7-1.5,13.3-2.6l17.8,52.4C412.5,399.9,411.9,400.7,411.1,400.7z"/>
<path class="st4" d="M411.7,401.5c-31.1,24.7-51.3,32.6-106.6,36.5c0,0,0.1,0,0.2,0c0,0,0,0,0,0l0.5-0.2c-0.4,0.1-0.8-0.2-0.9-0.7
	l-6.7-30.1c0-0.1,0.1-0.3,0.2-0.3l112.7-6c0.3,0,0.3,0.4,0.1,0.5l0.4-0.1C411.7,401,411.9,401.3,411.7,401.5z"/>
<path class="st5" d="M192,403l106,3.7l6.9,31c0,0.1-0.1,0.2-0.2,0.2L192,403C192,403,192,403,192,403z"/>
<polygon class="st5" points="126,283.2 193,400.6 228.3,298 228.4,297.7 "/>
<polygon class="st5" points="298,406.7 192,403 228.4,297.7 "/>
<polygon class="st2" points="185.3,171.5 228.4,297.7 126,283.2 "/>
<path class="st2" d="M203.5,122.3l99.1-31.2c0,0,0.1,0,0,0.1l-117.2,80.3c0,0-0.1,0,0,0L203.5,122.3
	C203.4,122.3,203.4,122.3,203.5,122.3z"/>
<polygon class="st2" points="139,198 126,283.2 185.3,171.5 "/>
<path class="st2" d="M202.7,124.2l-17.4,47.2c0,0.1-0.1,0.1-0.2,0.2l-44.6,25.6c-0.3,0.2-0.7-0.2-0.5-0.5l62-72.8
	C202.4,123.5,202.9,123.8,202.7,124.2z"/>
<path class="st2" d="M406.9,117.4l12.7,53.3c0,0.1-0.1,0.2-0.2,0.2L303.4,91.5c-0.1-0.1,0-0.3,0.1-0.3l64.6,16.3l38.8,9.8
	C406.9,117.3,406.9,117.3,406.9,117.4z"/>
<path class="st2" d="M470.2,198l-50.4-26.9c0,0,0,0,0,0L407,117.6c0-0.1,0.1-0.1,0.1-0.1l63.2,80.3C470.3,198,470.3,198,470.2,198z"
	/>
<polygon class="st2" points="479,284.3 470.5,198.2 419.7,171.1 479,284 "/>
<path class="st2" d="M475.1,284.8l-24.6,3.2c-0.6-3.2-1.2-6.6-1.5-10.1c0,0-1.3,4.3-3.3,10.7l-67.8,9l4.3-13
	c19.6-6.5,33.8-26.3,33.8-49.7c0-10.6-2.9-20.4-7.9-28.6l11.7-35.3l57.5,109.8c0,0,0,0,0,0c0,0,0,0,0,0c0,0,0,0,0,0.1c0,0,0,0,0,0
	c0,0,0,0,0,0C478,284,477,284.6,475.1,284.8z"/>
<path class="st2" d="M421,294c0,0-13.1,30.4-26.8,51.8l-9.8-29l0,0l-6.5-19.1l42.9-5.7L421,294z"/>
<path class="st2" d="M445.7,288.7c-4.4,13.9-12.2,37.5-17.3,46.8v0c-1.2,0.5-2.4,1-3.6,1.4c-0.6-0.4-3-4.4-3.9-43l-0.3-2
	L445.7,288.7z"/>
<path class="st4" d="M477.5,312.8c-5.7,13.9-27.4,61.5-64.2,87.4c-0.1,0.1-0.3-0.1-0.2-0.2l-0.3,0.5c0,0-0.1,0-0.1,0l-18.2-53.9
	l-0.3-0.9c0,0,0,0,0,0C407.9,324.4,421,294,421,294c0.9,38.6,3.3,42.6,3.9,43c1.2-0.5,2.4-1,3.6-1.4v0c0,0,0,0,0.1,0l0,0l29.6-14.6
	l-0.2,0.4c5.7-3.1,11.5-6.5,17.5-10.2C476.6,310.5,478,311.6,477.5,312.8z"/>
<path class="st2" d="M479,284.3l-18.4,32.2c-2.4-4.6-7.5-15.1-10.2-28.5l24.6-3.2L479,284.3z"/>
<path class="st6" d="M457.9,321.3c-10.3,5.6-20.1,10.3-29.4,14.2"/>
<path class="st6" d="M394.5,346.7c9.2-2.2,19-5.2,29.6-9.4c0.3-0.1,0.5-0.2,0.8-0.3"/>
<path class="st6" d="M289,321c0,0,15,22.1,51,28.4"/>
<ellipse class="st6" cx="353.2" cy="225.1" rx="17.8" ry="18.8"/>
<ellipse class="st6" cx="353.2" cy="225.1" rx="17.8" ry="18.8"/>
<path class="st7" d="M405.2,218.5c-6.6-17.6-21-29.9-37.7-29.9c-17.1,0-31.7,12.8-38.1,31c-2.2,6.2-3.4,13.1-3.4,20.4
	c0,28.4,18.6,51.4,41.5,51.4c0.2,0,0.3,0,0.5,0c6-0.1,11.7-1.7,16.8-4.6c14.3-8.1,24.2-26,24.2-46.8
	C409,232.4,407.6,225.1,405.2,218.5z"/>
<path class="st8" d="M409,240.6c0,20.8-10.9,38.1-25.2,46.2c-5.1,2.9-10.8,4.6-16.8,4.6c-0.2,0-0.3,0-0.5,0c-6.7,0-13-1.9-18.6-5.4
	l0.1-0.1c0,0,75,5.5,46.5-83.8c4,4.6,7.4,10.2,9.7,16.4C406.6,225.1,409,232.9,409,240.6z"/>
<g>
	<ellipse class="st9" cx="382.2" cy="213" rx="17.8" ry="18.8"/>
	<ellipse class="st10" cx="388.5" cy="203" rx="6.5" ry="6.6"/>
</g>
<path class="st6" d="M216.9,413.6"/>
<path class="st10" d="M462,319l-3.8,1.9l-29.6,14.6l0,0c0,0,0,0-0.1,0c5.1-9.3,12.9-32.9,17.3-46.8c2-6.4,4.3-14.7,4.3-14.7l0,0
	C460,279,461.4,313.4,462,319z"/>
<path class="st6" d="M428.5,335.5L428.5,335.5L428.5,335.5C428.5,335.5,428.5,335.5,428.5,335.5z"/>
<line class="st6" x1="462" y1="319" x2="458.2" y2="320.9"/>
<path class="st10" d="M425,337l-0.9,0.3l-29.9,8.7L394,346c0-0.1,0.1-0.2,0.2-0.2c0,0,0,0,0,0C407.9,324.4,421,294,421,294
	c7,24,3.3,42.6,3.9,43C424.9,337,425,337,425,337z"/>
<polygon class="st11" points="288,194 249,194 249,189 292,189 "/>
<polygon class="st5" points="280,204 249,204 249,199 284,199 "/>
<polygon class="st3" points="272,213 249,213 249,208 276,208 "/>
<polygon class="st12" points="264,223 249,223 249,218 268,218 "/>
<polygon class="st12" points="258,350 296,350 296,345 254,345 "/>
<polygon class="st3" points="265,359 296,359 296,354 261,354 "/>
<polygon class="st5" points="273,369 296,369 296,364 269,364 "/>
<polygon class="st11" points="281,378 296,378 296,373 277,373 "/>
<polygon class="st1" points="302.7,171.1 222.9,281 214.4,295.7 222.5,310.9 298,406.7 228.4,297.7 "/>
<polygon class="st11" points="288.9,94.9 257.3,72 260.2,68 295.1,93.2 "/>
<polygon class="st5" points="273.6,99.1 248.5,81 251.5,76.9 279.8,97.4 "/>
<polygon class="st3" points="258.4,104.4 239.7,90.9 242.7,86.8 264.5,102.7 "/>
<polygon class="st12" points="243.1,109.6 230.9,100.8 233.9,96.7 249.3,107.9 "/>
<path class="st1" d="M173.6,119.1c0,0,29.5,1.8,29.5,1.8L164,168c0,0,0,0,0,0C164.3,166.4,173.6,119.1,173.6,119.1z"/>
<polygon class="st13" points="197.2,127.4 173.9,126 174.1,123 199.8,124.6 "/>
<polygon class="st14" points="190.8,134.4 172.3,133.3 172.5,130.3 193.4,131.6 "/>
<polygon class="st15" points="184.8,141.9 171.1,141.1 171.3,138.1 187.4,139.1 "/>
<polygon class="st16" points="178.8,149.4 169.8,148.9 170,145.9 181.3,146.6 "/>
<path class="st17" d="M59.6,206.6h-0.3v-2.2C59.3,205.2,59.4,205.9,59.6,206.6z"/>
<rect x="59.2" y="201.9" class="st5" width="33.4" height="4.8"/>
<path class="st11" d="M92.7,192.3v4.8H59.4c0.2-1.6,0.6-3.2,1.1-4.8H92.7z"/>
<path class="st3" d="M92.7,211.4v4.8H63.5c-1-1.6-1.8-3.2-2.5-4.8H92.7z"/>
<path class="st17" d="M59.8,225.7h-0.6v-0.6C59.4,225.3,59.6,225.5,59.8,225.7z"/>
<path class="st12" d="M92.7,221v4.8H72.3c-2-1.6-3.7-3.2-5.2-4.8H92.7z"/>
<path class="st3" d="M92.7,357.4v4.8H59.2v-1c0.2-1.3,0.6-2.5,1-3.8H92.7z"/>
<path class="st12" d="M92.7,347.9v4.8H62.1c0.8-1.6,1.7-3.2,2.8-4.8H92.7z"/>
<rect x="59.3" y="367" class="st5" width="33.4" height="4.8"/>
<path class="st11" d="M92.7,376.5v4.8H60.4c-0.4-1.5-0.8-3.1-1.1-4.8H92.7z"/>
<path class="st3" d="M108.9,281.8H88v-4.8h20c0.4,1.4,0.7,2.9,0.9,4.4C108.9,281.6,108.9,281.7,108.9,281.8z"/>
<path class="st12" d="M106.5,272.3H88v-4.8h16.6C105.3,269.1,105.9,270.7,106.5,272.3z"/>
<path class="st5" d="M109.3,291.4H88v-4.8h21.4C109.5,288.2,109.4,289.8,109.3,291.4z"/>
<path class="st11" d="M108.6,296.2c-0.3,1.6-0.7,3.2-1.2,4.8H88v-4.8H108.6z"/>
<path class="st11" d="M126,283.2"/>
<path class="st4" d="M259.5,472c0,0,45.7-33.2,45.5-33.3c0,0-113.1-36.8-113-36.7l0,0l0,0C192,402,259.4,472,259.5,472z"/>
<polygon class="st11" points="289,434 253.1,460.3 256.4,465 296,436.1 "/>
<polygon class="st5" points="271.8,429 243.2,449.9 246.5,454.6 278.8,431.1 "/>
<polygon class="st3" points="254.5,422.9 233.4,438.4 236.6,443.1 261.5,424.9 "/>
<polygon class="st12" points="237.3,416.7 223.5,426.8 226.8,431.5 244.3,418.7 "/>
<path class="st4" d="M165.1,400c0,0,29.4,3.2,29.3,3.2l-30.5-53c0,0,0,0,0,0C164,351.9,165.1,400,165.1,400z"/>
<polygon class="st13" points="189.8,395.8 166.6,393.3 166.3,396.3 191.8,399 "/>
<polygon class="st14" points="184.7,387.8 166.3,385.8 166,388.8 186.8,391.1 "/>
<polygon class="st15" points="180,379.4 166.4,377.9 166,380.9 182.1,382.6 "/>
<polygon class="st16" points="175.3,371 166.4,370 166.1,373 177.4,374.2 "/>
<path class="st1" d="M126.1,286.2c0,30.2-32.6,42.2-56.5,66.1c-1.8,1.8-3.4,3.7-4.7,5.6c-1.1,1.6-2,3.2-2.8,4.8
	c-0.8,1.6-1.4,3.2-1.9,4.8c-0.4,1.3-0.7,2.5-1,3.8c-1,5.3-0.8,10.5,0.1,15.3c0.3,1.6,0.7,3.2,1.1,4.8C63.2,401.1,68,408,68,408
	c-8-3.2-24.5-27.3-13.5-47c12.2-22,42-39.6,51.8-60.1c0.8-1.6,1.4-3.2,1.9-4.8c0.5-1.6,0.8-3.2,1-4.8c0.2-1.6,0.3-3.2,0.2-4.8
	c-0.1-1.6-0.3-3.2-0.7-4.8c0-0.1-0.1-0.3-0.1-0.4c-0.4-1.5-0.8-2.9-1.4-4.4c-0.6-1.6-1.4-3.2-2.2-4.8c-0.8-1.6-1.8-3.2-2.9-4.8
	c-11.2-16.9-32.3-31.3-42.3-41.8c-0.2-0.2-0.4-0.4-0.6-0.6c-2.5-2.7-4.2-5.2-4.8-7.3c-7.4-29.6,16.1-43.4,16.7-43.8
	c-0.3,0.3-7.6,7.9-10.7,18.3c-0.5,1.5-0.8,3.1-1.1,4.8c-0.4,2.4-0.4,4.9-0.2,7.4v2.2h0.3c0.3,1.6,0.8,3.2,1.4,4.8
	c0.6,1.6,1.5,3.2,2.5,4.8c1,1.6,2.2,3.2,3.7,4.8c1.5,1.6,3.2,3.2,5.2,4.8c1.3,1.1,2.8,2.1,4.4,3.2
	C118.2,256,126.1,265.5,126.1,286.2z"/>
<path class="st1" d="M408.1,207.8c-8.6-15.6-23.3-25.8-40.1-25.8c-18.2,0-34,12.1-42.2,30c-3.7,8.2-5.8,17.6-5.8,27.5
	c0,31.8,21.5,57.5,48,57.5c1.2,0,2.3,0,3.5-0.1c3.7-0.3,7.3-1.1,10.7-2.4c19.6-7.2,33.8-29.1,33.8-55
	C416,227.8,413.1,216.9,408.1,207.8z M384.8,285.7c-5.1,2.9-10.8,4.6-16.8,4.6c-0.2,0-0.3,0-0.5,0c-22.9,0-41.5-23-41.5-51.4
	c0-7.3,1.2-14.2,3.4-20.4c6.4-18.2,21-31,38.1-31c16.7,0,31.1,12.2,37.7,29.9c2.4,6.5,3.8,13.8,3.8,21.5
	C409,259.7,399.1,277.6,384.8,285.7z"/>
</svg>
