<svg id="Layer_1" data-name="Layer 1" xmlns="http://www.w3.org/2000/svg" viewBox="0 0 518 518"><defs><style>.cls-1{fill:#fdc09d;stroke-width:3px;}.cls-1,.cls-10,.cls-11,.cls-12,.cls-13,.cls-14,.cls-15,.cls-16,.cls-17,.cls-2,.cls-3,.cls-4,.cls-5,.cls-6,.cls-7{stroke:#383130;}.cls-1,.cls-10,.cls-11,.cls-12,.cls-13,.cls-14,.cls-15,.cls-16,.cls-17,.cls-18,.cls-2,.cls-3,.cls-4,.cls-5,.cls-6,.cls-7{stroke-miterlimit:10;}.cls-2{fill:#386eaa;}.cls-10,.cls-11,.cls-12,.cls-13,.cls-2,.cls-3,.cls-4,.cls-5,.cls-6,.cls-7{stroke-width:1.5px;}.cls-3{fill:#75a4cb;}.cls-16,.cls-4{fill:#f6cd94;}.cls-5{fill:#a83509;}.cls-15,.cls-6{fill:#e08a8e;}.cls-18,.cls-7{fill:none;}.cls-8{fill:#efa67c;}.cls-9{fill:#fadbcd;}.cls-11{fill:#fff9ed;}.cls-12,.cls-14{fill:#1a5d68;}.cls-13,.cls-17{fill:#ec8a61;}.cls-18{stroke:#350a01;}</style></defs><circle class="cls-1" cx="259" cy="259" r="257.5"/><path class="cls-2" d="M251,53s40.1,29,40,29-100.1,31.1-100,31h0Z" transform="translate(0 0)"/><path class="cls-3" d="M175,161.7,290.3,82.3c.1-.1.3,0,.3.2v79.4a.22.22,0,0,1-.2.2H175.2a.24.24,0,0,1-.26-.22A.21.21,0,0,1,175,161.7Z" transform="translate(0 0)"/><path class="cls-3" d="M407.7,162.1,291.1,82.3c-.2-.1-.4,0-.4.2v79.6Z" transform="translate(0 0)"/><path class="cls-3" d="M370.2,275.7l-4.3,13-6.4-10.8A48.79,48.79,0,0,0,370.2,275.7Z" transform="translate(0 0)"/><path class="cls-3" d="M407.7,162.1,396,197.4c-8.6-14.1-23.3-23.4-40.1-23.4-18.2,0-34,11-42.2,27.1l-23.2-39Z" transform="translate(0 0)"/><polygon class="cls-3" points="216.4 288.7 290.7 162.1 174.4 162.1 216.4 288.7"/><path class="cls-3" d="M365.9,288.7H216.4l74.3-126.6,23.2,39a55.58,55.58,0,0,0-5.8,24.9c0,28.7,21.5,52,48,52,1.2,0,2.3,0,3.5-.1Z" transform="translate(0 0)"/><polygon class="cls-3" points="286 397.7 216.4 288.7 365.9 288.7 286 397.7"/><path class="cls-4" d="M382.5,337.7c-4.6,1.1-9,2-13.3,2.6h0c-.3,0-.5.1-.8.1h-.3a138.5,138.5,0,0,1-25,1.5h0a114.26,114.26,0,0,1-15-1.5l37.8-51.7,6.5,19.1,9.8,29h0Z" transform="translate(0 0)"/><path class="cls-4" d="M399.1,391.7l-113.1,6,42-57.4a110.94,110.94,0,0,0,15,1.5h0a130,130,0,0,0,25-1.5h.3c.2,0,.5-.1.8-.1h0c4.3-.6,8.7-1.5,13.3-2.6L400.2,390a1.23,1.23,0,0,1-1.1,1.7Z" transform="translate(0 0)"/><path class="cls-5" d="M293.1,429a6.19,6.19,0,0,1-.19-.85.07.07,0,0,1,0,0L286.2,398c0-.1.1-.3.2-.3l112.7-6C399.4,391.7,374.41,411.45,293.1,429Z" transform="translate(0 0)"/><path class="cls-6" d="M180,394l106,3.7,6.9,31a.22.22,0,0,1-.2.2Z" transform="translate(0 0)"/><polygon class="cls-6" points="114 274.2 181 391.6 216.3 289 216.4 288.7 114 274.2"/><polygon class="cls-6" points="286 397.7 180 394 216.4 288.7 286 397.7"/><polygon class="cls-3" points="173.3 162.5 216.4 288.7 114 274.2 173.3 162.5"/><path class="cls-3" d="M191.5,113.3l99.1-31.2s.1,0,0,.1L173.4,162.5h0Z" transform="translate(0 0)"/><polygon class="cls-3" points="127 189 114 274.2 173.3 162.5 127 189"/><path class="cls-3" d="M190.7,115.2l-17.4,47.2c0,.1-.1.1-.2.2l-44.6,25.6a.37.37,0,0,1-.5-.15.36.36,0,0,1,0-.35l62-72.8C190.4,114.5,190.9,114.8,190.7,115.2Z" transform="translate(0 0)"/><path class="cls-3" d="M394.9,108.4l12.7,53.3a.22.22,0,0,1-.2.2l-116-79.4a.2.2,0,0,1,0-.27l.07,0,64.6,16.3,38.8,9.8Z" transform="translate(0 0)"/><path class="cls-3" d="M458.2,189l-50.4-26.9h0L395,108.6a.09.09,0,0,1,.1-.1h0l63.2,80.3C458.3,189,458.3,189,458.2,189Z" transform="translate(0 0)"/><polygon class="cls-3" points="467 275.3 458.5 189.2 407.7 162.1 467 275 467 275.3"/><path class="cls-3" d="M463.1,275.8,438.5,279a101.19,101.19,0,0,1-1.5-10.1s-1.3,4.3-3.3,10.7l-67.8,9,4.3-13c19.6-6.5,33.8-26.3,33.8-49.7a54.69,54.69,0,0,0-7.9-28.6L407.8,162l57.5,109.8h0v.1h0C466,275,465,275.6,463.1,275.8Z" transform="translate(0 0)"/><path class="cls-3" d="M409,285s-13.1,30.4-26.8,51.8l-9.8-29h0l-6.5-19.1,42.9-5.7Z" transform="translate(0 0)"/><path class="cls-3" d="M433.7,279.7c-4.4,13.9-12.2,37.5-17.3,46.8h0c-1.2.5-2.4,1-3.6,1.4-.6-.4-3-4.4-3.9-43l-.3-2Z" transform="translate(0 0)"/><path class="cls-5" d="M465.5,303.8c-5.7,13.9-28.29,61.32-65.09,87.22-.1.1-17.91-53.42-17.91-53.42l-.3-.9h0C395.9,315.4,409,285,409,285c.9,38.6,3.3,42.6,3.9,43,1.2-.5,2.4-1,3.6-1.4h.1L446.2,312l-.2.4c5.7-3.1,11.5-6.5,17.5-10.2a1.35,1.35,0,0,1,2,1.6Z" transform="translate(0 0)"/><path class="cls-3" d="M467,275.3l-18.4,32.2A109.39,109.39,0,0,1,438.4,279l24.6-3.2Z" transform="translate(0 0)"/><path class="cls-7" d="M445.9,312.3q-14.34,7.83-29.4,14.2" transform="translate(0 0)"/><path class="cls-7" d="M382.5,337.7a216.11,216.11,0,0,0,29.6-9.4c.3-.1.5-.2.8-.3" transform="translate(0 0)"/><path class="cls-7" d="M277,312s15,22.1,51,28.4" transform="translate(0 0)"/><ellipse class="cls-7" cx="341.2" cy="216.1" rx="17.8" ry="18.8"/><ellipse class="cls-7" cx="341.2" cy="216.1" rx="17.8" ry="18.8"/><path class="cls-8" d="M393.2,209.5c-6.6-17.6-21-29.9-37.7-29.9-17.1,0-31.7,12.8-38.1,31A60.84,60.84,0,0,0,314,231c0,28.4,18.6,51.4,41.5,51.4h.5a35,35,0,0,0,16.8-4.6c14.3-8.1,24.2-26,24.2-46.8A63.07,63.07,0,0,0,393.2,209.5Z" transform="translate(0 0)"/><path class="cls-9" d="M397,231.6c0,20.8-10.9,38.1-25.2,46.2a33.84,33.84,0,0,1-16.8,4.6h-.5a34.78,34.78,0,0,1-18.6-5.4l.1-.1s75,5.5,46.5-83.8a53.56,53.56,0,0,1,9.7,16.4C394.6,216.1,397,223.9,397,231.6Z" transform="translate(0 0)"/><ellipse class="cls-10" cx="370.2" cy="204" rx="17.8" ry="18.8"/><ellipse class="cls-11" cx="376.5" cy="194" rx="6.5" ry="6.6"/><path class="cls-7" d="M204.9,404.6" transform="translate(0 0)"/><path class="cls-11" d="M450,310l-3.8,1.9-29.6,14.6h-.1c5.1-9.3,12.9-32.9,17.3-46.8,2-6.4,4.3-14.7,4.3-14.7h0C448,270,449.4,304.4,450,310Z" transform="translate(0 0)"/><path class="cls-7" d="M416.5,326.5" transform="translate(0 0)"/><line class="cls-7" x1="450" y1="310" x2="446.2" y2="311.9"/><path class="cls-11" d="M413,328l-.9.3L382.2,337H382a.22.22,0,0,1,.2-.2h0C395.9,315.4,409,285,409,285c7,24,3.3,42.6,3.9,43Z" transform="translate(0 0)"/><polygon class="cls-12" points="276 185 237 185 237 180 280 180 276 185"/><polygon class="cls-6" points="268 195 237 195 237 190 272 190 268 195"/><polygon class="cls-4" points="260 204 237 204 237 199 264 199 260 204"/><polygon class="cls-13" points="252 214 237 214 237 209 256 209 252 214"/><polygon class="cls-13" points="246 341 284 341 284 336 242 336 246 341"/><polygon class="cls-4" points="253 350 284 350 284 345 249 345 253 350"/><polygon class="cls-6" points="261 360 284 360 284 355 257 355 261 360"/><polygon class="cls-12" points="269 369 284 369 284 364 265 364 269 369"/><polygon class="cls-2" points="290.7 162.1 210.9 272 202.4 286.7 210.5 301.9 286 397.7 216.4 288.7 290.7 162.1"/><polygon class="cls-12" points="276.9 85.9 245.3 63 248.2 59 283.1 84.2 276.9 85.9"/><polygon class="cls-6" points="261.6 90.1 236.5 72 239.5 67.9 267.8 88.4 261.6 90.1"/><polygon class="cls-4" points="246.4 95.4 227.7 81.9 230.7 77.8 252.5 93.7 246.4 95.4"/><polygon class="cls-13" points="231.1 100.6 218.9 91.8 221.9 87.7 237.3 98.9 231.1 100.6"/><path class="cls-2" d="M161.6,110.1l29.5,1.8L152,159h0C152.3,157.4,161.6,110.1,161.6,110.1Z" transform="translate(0 0)"/><polygon class="cls-14" points="185.2 118.4 161.9 117 162.1 114 187.8 115.6 185.2 118.4"/><polygon class="cls-15" points="178.8 125.4 160.3 124.3 160.5 121.3 181.4 122.6 178.8 125.4"/><polygon class="cls-16" points="172.8 132.9 159.1 132.1 159.3 129.1 175.4 130.1 172.8 132.9"/><polygon class="cls-17" points="166.8 140.4 157.8 139.9 158 136.9 169.3 137.6 166.8 140.4"/><path class="cls-18" d="M47.6,197.6h-.3v-2.2A7.84,7.84,0,0,0,47.6,197.6Z" transform="translate(0 0)"/><rect class="cls-6" x="47.2" y="192.9" width="33.4" height="4.8"/><path class="cls-12" d="M80.7,183.3v4.8H47.4a27.15,27.15,0,0,1,1.1-4.8Z" transform="translate(0 0)"/><path class="cls-4" d="M80.7,202.4v4.8H51.5a36.44,36.44,0,0,1-2.5-4.8Z" transform="translate(0 0)"/><path class="cls-18" d="M47.8,216.7h-.6v-.6Z" transform="translate(0 0)"/><path class="cls-13" d="M80.7,212v4.8H60.3a49.2,49.2,0,0,1-5.2-4.8Z" transform="translate(0 0)"/><path class="cls-4" d="M80.7,348.4v4.8H47.2v-1a26.23,26.23,0,0,1,1-3.8Z" transform="translate(0 0)"/><path class="cls-13" d="M80.7,338.9v4.8H50.1a40.33,40.33,0,0,1,2.8-4.8Z" transform="translate(0 0)"/><rect class="cls-6" x="47.3" y="358" width="33.4" height="4.8"/><path class="cls-12" d="M80.7,367.5v4.8H48.4c-.4-1.5-.8-3.1-1.1-4.8Z" transform="translate(0 0)"/><path class="cls-4" d="M96.9,272.8H76V268H96a29.85,29.85,0,0,1,.9,4.4Z" transform="translate(0 0)"/><path class="cls-13" d="M94.5,263.3H76v-4.8H92.6C93.3,260.1,93.9,261.7,94.5,263.3Z" transform="translate(0 0)"/><path class="cls-6" d="M97.3,282.4H76v-4.8H97.4A38.46,38.46,0,0,1,97.3,282.4Z" transform="translate(0 0)"/><path class="cls-12" d="M96.6,287.2a44.3,44.3,0,0,1-1.2,4.8H76v-4.8Z" transform="translate(0 0)"/><path class="cls-12" d="M114,274.2" transform="translate(0 0)"/><path class="cls-5" d="M247.5,463s45.7-33.2,45.5-33.3c0,0-113.1-36.8-113-36.7h0S247.4,463,247.5,463Z" transform="translate(0 0)"/><polygon class="cls-12" points="277 425 241.1 451.3 244.4 456 284 427.1 277 425"/><polygon class="cls-6" points="259.8 420 231.2 440.9 234.5 445.6 266.8 422.1 259.8 420"/><polygon class="cls-4" points="242.5 413.9 221.4 429.4 224.6 434.1 249.5 415.9 242.5 413.9"/><polygon class="cls-13" points="225.3 407.7 211.5 417.8 214.8 422.5 232.3 409.7 225.3 407.7"/><path class="cls-5" d="M153.1,391s29.4,3.2,29.3,3.2l-30.5-53h0C152,342.9,153.1,391,153.1,391Z" transform="translate(0 0)"/><polygon class="cls-14" points="177.8 386.8 154.6 384.3 154.3 387.3 179.8 390 177.8 386.8"/><polygon class="cls-15" points="172.7 378.8 154.3 376.8 154 379.8 174.8 382.1 172.7 378.8"/><polygon class="cls-16" points="168 370.4 154.4 368.9 154 371.9 170.1 373.6 168 370.4"/><polygon class="cls-17" points="163.3 362 154.4 361 154.1 364 165.4 365.2 163.3 362"/><path class="cls-2" d="M114.1,277.2c0,30.2-32.6,42.2-56.5,66.1a38,38,0,0,0-7.5,10.4,31.94,31.94,0,0,0-1.9,4.8c-.4,1.3-.7,2.5-1,3.8a41.21,41.21,0,0,0,.1,15.3c.3,1.6.7,3.2,1.1,4.8A62.26,62.26,0,0,0,56,399c-8-3.2-24.5-27.3-13.5-47,12.2-22,42-39.6,51.8-60.1a31.94,31.94,0,0,0,1.9-4.8,27.11,27.11,0,0,0,1-4.8,25.69,25.69,0,0,0,.2-4.8,26.85,26.85,0,0,0-.7-4.8c0-.1-.1-.3-.1-.4a38.1,38.1,0,0,0-1.4-4.4,49.5,49.5,0,0,0-2.2-4.8,41.07,41.07,0,0,0-2.9-4.8C78.9,241.4,57.8,227,47.8,216.5l-.6-.6c-2.5-2.7-4.2-5.2-4.8-7.3C35,179,58.5,165.2,59.1,164.8a49.37,49.37,0,0,0-10.7,18.3,34.39,34.39,0,0,0-1.1,4.8,30.54,30.54,0,0,0-.2,7.4v2.2h.3a29.65,29.65,0,0,0,1.4,4.8,27,27,0,0,0,2.5,4.8,30.69,30.69,0,0,0,3.7,4.8,49.2,49.2,0,0,0,5.2,4.8c1.3,1.1,2.8,2.1,4.4,3.2C106.2,247,114.1,256.5,114.1,277.2Z" transform="translate(0 0)"/><path class="cls-2" d="M396.1,198.8C387.5,183.2,372.8,173,356,173c-18.2,0-34,12.1-42.2,30a67,67,0,0,0-5.8,27.5c0,31.8,21.5,57.5,48,57.5,1.2,0,2.3,0,3.5-.1a38.89,38.89,0,0,0,10.7-2.4c19.6-7.2,33.8-29.1,33.8-55A65.93,65.93,0,0,0,396.1,198.8Zm-23.3,77.9a33.84,33.84,0,0,1-16.8,4.6h-.5c-22.9,0-41.5-23-41.5-51.4a60.84,60.84,0,0,1,3.4-20.4c6.4-18.2,21-31,38.1-31,16.7,0,31.1,12.2,37.7,29.9a62.36,62.36,0,0,1,3.8,21.5c0,20.8-9.9,38.7-24.2,46.8Z" transform="translate(0 0)"/></svg>