<svg id="Layer_1" data-name="Layer 1" xmlns="http://www.w3.org/2000/svg" viewBox="0 0 518 518"><defs><style>.cls-1{fill:#fdc09d;stroke-width:3px;}.cls-1,.cls-10,.cls-11,.cls-12,.cls-13,.cls-14,.cls-15,.cls-16,.cls-17,.cls-2,.cls-3,.cls-4,.cls-5,.cls-6,.cls-7{stroke:#383130;}.cls-1,.cls-10,.cls-11,.cls-12,.cls-13,.cls-14,.cls-15,.cls-16,.cls-17,.cls-18,.cls-2,.cls-3,.cls-4,.cls-5,.cls-6,.cls-7{stroke-miterlimit:10;}.cls-2{fill:#386eaa;}.cls-10,.cls-11,.cls-12,.cls-13,.cls-2,.cls-3,.cls-4,.cls-5,.cls-6,.cls-7{stroke-width:1.5px;}.cls-3{fill:#75a4cb;}.cls-16,.cls-4{fill:#f6cd94;}.cls-5{fill:#a83509;}.cls-15,.cls-6{fill:#e08a8e;}.cls-18,.cls-7{fill:none;}.cls-8{fill:#efa67c;}.cls-9{fill:#fadbcd;}.cls-11{fill:#fff9ed;}.cls-12,.cls-14{fill:#1a5d68;}.cls-13,.cls-17{fill:#ec8a61;}.cls-18{stroke:#350a01;}</style></defs><circle class="cls-1" cx="259" cy="259" r="257.5"/><path class="cls-2" d="M263,62s40.1,29,40,29-100.1,31.1-100,31h0Z" transform="translate(-12 -9)"/><path class="cls-3" d="M187,170.7,302.3,91.3c.1-.1.3,0,.3.2v79.4a.22.22,0,0,1-.2.2H187.2A.24.24,0,0,1,187,170.7Z" transform="translate(-12 -9)"/><path class="cls-3" d="M419.7,171.1,303.1,91.3c-.2-.1-.4,0-.4.2v79.6Z" transform="translate(-12 -9)"/><path class="cls-3" d="M382.2,284.7l-4.3,13-6.4-10.8A48.43,48.43,0,0,0,382.2,284.7Z" transform="translate(-12 -9)"/><path class="cls-3" d="M419.7,171.1,408,206.4c-8.6-14.1-23.3-23.4-40.1-23.4-18.2,0-34,11-42.2,27.1l-23.2-39Z" transform="translate(-12 -9)"/><polygon class="cls-3" points="216.4 288.7 290.7 162.1 174.4 162.1 216.4 288.7"/><path class="cls-3" d="M377.9,297.7H228.4l74.3-126.6,23.2,39a55.65,55.65,0,0,0-5.8,24.9c0,28.7,21.5,52,48,52,1.2,0,2.3,0,3.5-.1Z" transform="translate(-12 -9)"/><polygon class="cls-3" points="286 397.7 216.4 288.7 365.9 288.7 286 397.7"/><path class="cls-4" d="M394.5,346.7c-4.6,1.1-9,2-13.3,2.6h0c-.3,0-.5.1-.8.1h-.3a138.68,138.68,0,0,1-25,1.5h0a115.39,115.39,0,0,1-15-1.5l37.8-51.7,6.5,19.1,9.8,29h0Z" transform="translate(-12 -9)"/><path class="cls-4" d="M411.1,400.7l-113.1,6,42-57.4a111.93,111.93,0,0,0,15,1.5h0a130.1,130.1,0,0,0,25-1.5h.3c.2,0,.5-.1.8-.1h0c4.3-.6,8.7-1.5,13.3-2.6L412.2,399A1.23,1.23,0,0,1,411.1,400.7Z" transform="translate(-12 -9)"/><path class="cls-5" d="M411.7,401.5c-31.1,24.7-51.3,32.6-106.6,36.5h.2l.5-.2a.78.78,0,0,1-.9-.7L298.2,407c0-.1.1-.3.2-.3l112.7-6c.3,0,.3.4.1.5l.4-.1C411.7,401,411.9,401.3,411.7,401.5Z" transform="translate(-12 -9)"/><path class="cls-6" d="M192,403l106,3.7,6.9,31a.22.22,0,0,1-.2.2L192,403Z" transform="translate(-12 -9)"/><polygon class="cls-6" points="114 274.2 181 391.6 216.3 289 216.4 288.7 114 274.2"/><polygon class="cls-6" points="286 397.7 180 394 216.4 288.7 286 397.7"/><polygon class="cls-3" points="173.3 162.5 216.4 288.7 114 274.2 173.3 162.5"/><path class="cls-3" d="M203.5,122.3l99.1-31.2s.1,0,0,.1L185.4,171.5h0l18.1-49.2Z" transform="translate(-12 -9)"/><polygon class="cls-3" points="127 189 114 274.2 173.3 162.5 127 189"/><path class="cls-3" d="M202.7,124.2l-17.4,47.2c0,.1-.1.1-.2.2l-44.6,25.6a.37.37,0,0,1-.5-.5l62-72.8C202.4,123.5,202.9,123.8,202.7,124.2Z" transform="translate(-12 -9)"/><path class="cls-3" d="M406.9,117.4l12.7,53.3a.22.22,0,0,1-.2.2l-116-79.4a.19.19,0,0,1,.1-.3l64.6,16.3,38.8,9.8Z" transform="translate(-12 -9)"/><path class="cls-3" d="M470.2,198l-50.4-26.9h0L407,117.6a.1.1,0,0,1,.1-.1l63.2,80.3C470.3,198,470.3,198,470.2,198Z" transform="translate(-12 -9)"/><polygon class="cls-3" points="467 275.3 458.5 189.2 407.7 162.1 467 275 467 275.3"/><path class="cls-3" d="M475.1,284.8,450.5,288a102,102,0,0,1-1.5-10.1s-1.3,4.3-3.3,10.7l-67.8,9,4.3-13c19.6-6.5,33.8-26.3,33.8-49.7a54.75,54.75,0,0,0-7.9-28.6L419.8,171l57.5,109.8h0v.1h0C478,284,477,284.6,475.1,284.8Z" transform="translate(-12 -9)"/><path class="cls-3" d="M421,294s-13.1,30.4-26.8,51.8l-9.8-29h0l-6.5-19.1,42.9-5.7Z" transform="translate(-12 -9)"/><path class="cls-3" d="M445.7,288.7c-4.4,13.9-12.2,37.5-17.3,46.8h0c-1.2.5-2.4,1-3.6,1.4-.6-.4-3-4.4-3.9-43l-.3-2Z" transform="translate(-12 -9)"/><path class="cls-5" d="M477.5,312.8c-5.7,13.9-27.4,61.5-64.2,87.4-.1.1-.3-.1-.2-.2l-.3.5h-.1l-18.2-53.9-.3-.9h0C407.9,324.4,421,294,421,294c.9,38.6,3.3,42.6,3.9,43,1.2-.5,2.4-1,3.6-1.4h.1L458.2,321l-.2.4c5.7-3.1,11.5-6.5,17.5-10.2A1.35,1.35,0,0,1,477.5,312.8Z" transform="translate(-12 -9)"/><path class="cls-3" d="M479,284.3l-18.4,32.2A109.48,109.48,0,0,1,450.4,288l24.6-3.2Z" transform="translate(-12 -9)"/><path class="cls-7" d="M457.9,321.3a324,324,0,0,1-29.4,14.2" transform="translate(-12 -9)"/><path class="cls-7" d="M394.5,346.7a216.68,216.68,0,0,0,29.6-9.4c.3-.1.5-.2.8-.3" transform="translate(-12 -9)"/><path class="cls-7" d="M289,321s15,22.1,51,28.4" transform="translate(-12 -9)"/><ellipse class="cls-7" cx="341.2" cy="216.1" rx="17.8" ry="18.8"/><ellipse class="cls-7" cx="341.2" cy="216.1" rx="17.8" ry="18.8"/><path class="cls-8" d="M405.2,218.5c-6.6-17.6-21-29.9-37.7-29.9-17.1,0-31.7,12.8-38.1,31A61,61,0,0,0,326,240c0,28.4,18.6,51.4,41.5,51.4h.5a35,35,0,0,0,16.8-4.6c14.3-8.1,24.2-26,24.2-46.8A63.07,63.07,0,0,0,405.2,218.5Z" transform="translate(-12 -9)"/><path class="cls-9" d="M409,240.6c0,20.8-10.9,38.1-25.2,46.2a33.89,33.89,0,0,1-16.8,4.6h-.5a34.78,34.78,0,0,1-18.6-5.4l.1-.1s75,5.5,46.5-83.8a53.54,53.54,0,0,1,9.7,16.4C406.6,225.1,409,232.9,409,240.6Z" transform="translate(-12 -9)"/><ellipse class="cls-10" cx="370.2" cy="204" rx="17.8" ry="18.8"/><ellipse class="cls-11" cx="376.5" cy="194" rx="6.5" ry="6.6"/><path class="cls-7" d="M216.9,413.6" transform="translate(-12 -9)"/><path class="cls-11" d="M462,319l-3.8,1.9-29.6,14.6h-.1c5.1-9.3,12.9-32.9,17.3-46.8,2-6.4,4.3-14.7,4.3-14.7h0C460,279,461.4,313.4,462,319Z" transform="translate(-12 -9)"/><path class="cls-7" d="M428.5,335.5Z" transform="translate(-12 -9)"/><line class="cls-7" x1="450" y1="310" x2="446.2" y2="311.9"/><path class="cls-11" d="M425,337l-.9.3L394.2,346H394a.22.22,0,0,1,.2-.2h0C407.9,324.4,421,294,421,294c7,24,3.3,42.6,3.9,43Z" transform="translate(-12 -9)"/><polygon class="cls-12" points="276 185 237 185 237 180 280 180 276 185"/><polygon class="cls-6" points="268 195 237 195 237 190 272 190 268 195"/><polygon class="cls-4" points="260 204 237 204 237 199 264 199 260 204"/><polygon class="cls-13" points="252 214 237 214 237 209 256 209 252 214"/><polygon class="cls-13" points="246 341 284 341 284 336 242 336 246 341"/><polygon class="cls-4" points="253 350 284 350 284 345 249 345 253 350"/><polygon class="cls-6" points="261 360 284 360 284 355 257 355 261 360"/><polygon class="cls-12" points="269 369 284 369 284 364 265 364 269 369"/><polygon class="cls-2" points="290.7 162.1 210.9 272 202.4 286.7 210.5 301.9 286 397.7 216.4 288.7 290.7 162.1"/><polygon class="cls-12" points="276.9 85.9 245.3 63 248.2 59 283.1 84.2 276.9 85.9"/><polygon class="cls-6" points="261.6 90.1 236.5 72 239.5 67.9 267.8 88.4 261.6 90.1"/><polygon class="cls-4" points="246.4 95.4 227.7 81.9 230.7 77.8 252.5 93.7 246.4 95.4"/><polygon class="cls-13" points="231.1 100.6 218.9 91.8 221.9 87.7 237.3 98.9 231.1 100.6"/><path class="cls-2" d="M173.6,119.1l29.5,1.8L164,168h0C164.3,166.4,173.6,119.1,173.6,119.1Z" transform="translate(-12 -9)"/><polygon class="cls-14" points="185.2 118.4 161.9 117 162.1 114 187.8 115.6 185.2 118.4"/><polygon class="cls-15" points="178.8 125.4 160.3 124.3 160.5 121.3 181.4 122.6 178.8 125.4"/><polygon class="cls-16" points="172.8 132.9 159.1 132.1 159.3 129.1 175.4 130.1 172.8 132.9"/><polygon class="cls-17" points="166.8 140.4 157.8 139.9 158 136.9 169.3 137.6 166.8 140.4"/><path class="cls-18" d="M59.6,206.6h-.3v-2.2A7.8,7.8,0,0,0,59.6,206.6Z" transform="translate(-12 -9)"/><rect class="cls-6" x="47.2" y="192.9" width="33.4" height="4.8"/><path class="cls-12" d="M92.7,192.3v4.8H59.4a27.69,27.69,0,0,1,1.1-4.8Z" transform="translate(-12 -9)"/><path class="cls-4" d="M92.7,211.4v4.8H63.5a36.73,36.73,0,0,1-2.5-4.8Z" transform="translate(-12 -9)"/><path class="cls-18" d="M59.8,225.7h-.6v-.6Z" transform="translate(-12 -9)"/><path class="cls-13" d="M92.7,221v4.8H72.3a49.21,49.21,0,0,1-5.2-4.8Z" transform="translate(-12 -9)"/><path class="cls-4" d="M92.7,357.4v4.8H59.2v-1a26.64,26.64,0,0,1,1-3.8Z" transform="translate(-12 -9)"/><path class="cls-13" d="M92.7,347.9v4.8H62.1a39.75,39.75,0,0,1,2.8-4.8Z" transform="translate(-12 -9)"/><rect class="cls-6" x="47.3" y="358" width="33.4" height="4.8"/><path class="cls-12" d="M92.7,376.5v4.8H60.4c-.4-1.5-.8-3.1-1.1-4.8Z" transform="translate(-12 -9)"/><path class="cls-4" d="M108.9,281.8H88V277h20a31.17,31.17,0,0,1,.9,4.4Z" transform="translate(-12 -9)"/><path class="cls-13" d="M106.5,272.3H88v-4.8h16.6C105.3,269.1,105.9,270.7,106.5,272.3Z" transform="translate(-12 -9)"/><path class="cls-6" d="M109.3,291.4H88v-4.8h21.4A38.46,38.46,0,0,1,109.3,291.4Z" transform="translate(-12 -9)"/><path class="cls-12" d="M108.6,296.2a42.09,42.09,0,0,1-1.2,4.8H88v-4.8Z" transform="translate(-12 -9)"/><path class="cls-12" d="M126,283.2" transform="translate(-12 -9)"/><path class="cls-5" d="M259.5,472s45.7-33.2,45.5-33.3c0,0-113.1-36.8-113-36.7h0S259.4,472,259.5,472Z" transform="translate(-12 -9)"/><polygon class="cls-12" points="277 425 241.1 451.3 244.4 456 284 427.1 277 425"/><polygon class="cls-6" points="259.8 420 231.2 440.9 234.5 445.6 266.8 422.1 259.8 420"/><polygon class="cls-4" points="242.5 413.9 221.4 429.4 224.6 434.1 249.5 415.9 242.5 413.9"/><polygon class="cls-13" points="225.3 407.7 211.5 417.8 214.8 422.5 232.3 409.7 225.3 407.7"/><path class="cls-5" d="M165.1,400s29.4,3.2,29.3,3.2l-30.5-53h0C164,351.9,165.1,400,165.1,400Z" transform="translate(-12 -9)"/><polygon class="cls-14" points="177.8 386.8 154.6 384.3 154.3 387.3 179.8 390 177.8 386.8"/><polygon class="cls-15" points="172.7 378.8 154.3 376.8 154 379.8 174.8 382.1 172.7 378.8"/><polygon class="cls-16" points="168 370.4 154.4 368.9 154 371.9 170.1 373.6 168 370.4"/><polygon class="cls-17" points="163.3 362 154.4 361 154.1 364 165.4 365.2 163.3 362"/><path class="cls-2" d="M126.1,286.2c0,30.2-32.6,42.2-56.5,66.1a37.86,37.86,0,0,0-7.5,10.4,31.89,31.89,0,0,0-1.9,4.8c-.4,1.3-.7,2.5-1,3.8a41.33,41.33,0,0,0,.1,15.3c.3,1.6.7,3.2,1.1,4.8A62.33,62.33,0,0,0,68,408c-8-3.2-24.5-27.3-13.5-47,12.2-22,42-39.6,51.8-60.1a31.89,31.89,0,0,0,1.9-4.8,27.34,27.34,0,0,0,1-4.8,25.72,25.72,0,0,0,.2-4.8,26.48,26.48,0,0,0-.7-4.8c0-.1-.1-.3-.1-.4a37.32,37.32,0,0,0-1.4-4.4,51.14,51.14,0,0,0-2.2-4.8,40.86,40.86,0,0,0-2.9-4.8C90.9,250.4,69.8,236,59.8,225.5l-.6-.6c-2.5-2.7-4.2-5.2-4.8-7.3C47,188,70.5,174.2,71.1,173.8a49.34,49.34,0,0,0-10.7,18.3,33.76,33.76,0,0,0-1.1,4.8,30.43,30.43,0,0,0-.2,7.4v2.2h.3a29,29,0,0,0,1.4,4.8,27.57,27.57,0,0,0,2.5,4.8,31,31,0,0,0,3.7,4.8,49.21,49.21,0,0,0,5.2,4.8c1.3,1.1,2.8,2.1,4.4,3.2C118.2,256,126.1,265.5,126.1,286.2Z" transform="translate(-12 -9)"/><path class="cls-2" d="M408.1,207.8C399.5,192.2,384.8,182,368,182c-18.2,0-34,12.1-42.2,30a67,67,0,0,0-5.8,27.5c0,31.8,21.5,57.5,48,57.5,1.2,0,2.3,0,3.5-.1a38.68,38.68,0,0,0,10.7-2.4c19.6-7.2,33.8-29.1,33.8-55A65.89,65.89,0,0,0,408.1,207.8Zm-23.3,77.9a33.89,33.89,0,0,1-16.8,4.6h-.5c-22.9,0-41.5-23-41.5-51.4a61,61,0,0,1,3.4-20.4c6.4-18.2,21-31,38.1-31,16.7,0,31.1,12.2,37.7,29.9a62.21,62.21,0,0,1,3.8,21.5C409,259.7,399.1,277.6,384.8,285.7Z" transform="translate(-12 -9)"/></svg>